<svg width="233" height="150" viewBox="0 0 233 150" fill="none" xmlns="http://www.w3.org/2000/svg">
<path fill-rule="evenodd" clip-rule="evenodd" d="M123.181 9.24613C123.282 9.14428 123.403 9.06347 123.535 9.00833C123.667 8.95319 123.809 8.9248 123.953 8.9248C124.096 8.9248 124.238 8.95319 124.37 9.00833C124.503 9.06347 124.623 9.14428 124.724 9.24613L133.441 17.9961C133.542 18.0977 133.623 18.2184 133.678 18.3513C133.733 18.4842 133.761 18.6266 133.761 18.7705C133.761 18.9144 133.733 19.0568 133.678 19.1897C133.623 19.3226 133.542 19.4433 133.441 19.5449L129.296 23.7055L127.489 30.9527C127.352 31.5045 127.074 32.011 126.683 32.4225C126.292 32.834 125.801 33.1364 125.258 33.2999L102.714 40.0899L109.478 17.458C109.641 16.9139 109.942 16.4216 110.352 16.0293C110.761 15.637 111.265 15.3582 111.814 15.2202L119.034 13.4089L123.181 9.24613ZM119.258 15.6074L112.344 17.3421C112.16 17.3881 111.992 17.4812 111.855 17.6124C111.718 17.7436 111.618 17.9082 111.564 18.0902L105.963 36.8261L124.632 31.2043C124.813 31.1494 124.976 31.0487 125.105 30.9118C125.235 30.775 125.328 30.6067 125.373 30.4233L127.104 23.4802L119.258 15.6052V15.6074Z" fill="white"/>
<path fill-rule="evenodd" clip-rule="evenodd" d="M106.153 36.7693L117.415 27.5205C117.846 27.5205 118.268 27.3922 118.626 27.1518C118.984 26.9115 119.264 26.5698 119.429 26.1701C119.594 25.7704 119.637 25.3306 119.553 24.9062C119.468 24.4819 119.261 24.0921 118.956 23.7862C118.651 23.4803 118.263 23.2719 117.84 23.1875C117.418 23.1031 116.979 23.1465 116.581 23.312C116.183 23.4776 115.843 23.758 115.603 24.1177C115.364 24.4774 115.236 24.9004 115.236 25.333L106.022 36.638L105.965 36.8261L106.153 36.7693Z" fill="white"/>
<path d="M140 24.5C140 21.3512 139.393 18.3444 138.292 15.5968L137.364 15.969C135.154 10.4588 130.869 6.04388 125.503 3.74202L125.897 2.823C123.159 1.64867 120.153 1 117 1C113.847 1 110.841 1.64866 108.103 2.823L108.497 3.74202C103.131 6.04388 98.8457 10.4588 96.6364 15.969L95.7083 15.5968C94.6066 18.3444 94 21.3512 94 24.5C94 27.6488 94.6066 30.6556 95.7083 33.4032L96.6364 33.031C98.8457 38.5412 103.131 42.9561 108.497 45.258L108.103 46.177C110.841 47.3513 113.847 48 117 48C120.153 48 123.159 47.3513 125.897 46.177L125.503 45.258C130.869 42.9561 135.154 38.5412 137.364 33.031L138.292 33.4032C139.393 30.6556 140 27.6488 140 24.5Z" stroke="white" stroke-width="2" stroke-dasharray="20 20"/>
<path d="M53.1136 64.75H43.1591C42.9773 63.4621 42.6061 62.3182 42.0455 61.3182C41.4849 60.303 40.7652 59.4394 39.8864 58.7273C39.0076 58.0151 37.9924 57.4697 36.8409 57.0909C35.7045 56.7121 34.4697 56.5227 33.1364 56.5227C30.7273 56.5227 28.6288 57.1212 26.8409 58.3182C25.053 59.5 23.6667 61.2273 22.6818 63.5C21.697 65.7576 21.2045 68.5 21.2045 71.7273C21.2045 75.0455 21.697 77.8333 22.6818 80.0909C23.6818 82.3485 25.0758 84.053 26.8636 85.2045C28.6515 86.3561 30.7197 86.9318 33.0682 86.9318C34.3864 86.9318 35.6061 86.7576 36.7273 86.4091C37.8636 86.0606 38.8712 85.553 39.75 84.8864C40.6288 84.2045 41.3561 83.3788 41.9318 82.4091C42.5227 81.4394 42.9318 80.3333 43.1591 79.0909L53.1136 79.1364C52.8561 81.2727 52.2121 83.3333 51.1818 85.3182C50.1667 87.2879 48.7955 89.053 47.0682 90.6136C45.3561 92.1591 43.3106 93.3864 40.9318 94.2955C38.5682 95.1894 35.8939 95.6364 32.9091 95.6364C28.7576 95.6364 25.0455 94.697 21.7727 92.8182C18.5152 90.9394 15.9394 88.2197 14.0455 84.6591C12.1667 81.0985 11.2273 76.7879 11.2273 71.7273C11.2273 66.6515 12.1818 62.3333 14.0909 58.7727C16 55.2121 18.5909 52.5 21.8636 50.6364C25.1364 48.7576 28.8182 47.8182 32.9091 47.8182C35.6061 47.8182 38.1061 48.197 40.4091 48.9545C42.7273 49.7121 44.7803 50.8182 46.5682 52.2727C48.3561 53.7121 49.8106 55.4773 50.9318 57.5682C52.0682 59.6591 52.7955 62.053 53.1136 64.75ZM59.9886 95V60.0909H69.375V66.1818H69.7386C70.375 64.0152 71.4432 62.3788 72.9432 61.2727C74.4432 60.1515 76.1705 59.5909 78.125 59.5909C78.6098 59.5909 79.1326 59.6212 79.6932 59.6818C80.2538 59.7424 80.7462 59.8258 81.1705 59.9318V68.5227C80.7159 68.3864 80.0871 68.2652 79.2841 68.1591C78.4811 68.053 77.7462 68 77.0795 68C75.6553 68 74.3826 68.3106 73.2614 68.9318C72.1553 69.5379 71.2765 70.3864 70.625 71.4773C69.9886 72.5682 69.6705 73.8258 69.6705 75.25V95H59.9886ZM100.324 95.6818C96.7936 95.6818 93.7405 94.9318 91.1648 93.4318C88.6042 91.9167 86.6269 89.8106 85.233 87.1136C83.839 84.4015 83.142 81.2576 83.142 77.6818C83.142 74.0758 83.839 70.9242 85.233 68.2273C86.6269 65.5152 88.6042 63.4091 91.1648 61.9091C93.7405 60.3939 96.7936 59.6364 100.324 59.6364C103.854 59.6364 106.9 60.3939 109.46 61.9091C112.036 63.4091 114.021 65.5152 115.415 68.2273C116.809 70.9242 117.506 74.0758 117.506 77.6818C117.506 81.2576 116.809 84.4015 115.415 87.1136C114.021 89.8106 112.036 91.9167 109.46 93.4318C106.9 94.9318 103.854 95.6818 100.324 95.6818ZM100.369 88.1818C101.975 88.1818 103.316 87.7273 104.392 86.8182C105.468 85.8939 106.278 84.6364 106.824 83.0455C107.384 81.4545 107.665 79.6439 107.665 77.6136C107.665 75.5833 107.384 73.7727 106.824 72.1818C106.278 70.5909 105.468 69.3333 104.392 68.4091C103.316 67.4848 101.975 67.0227 100.369 67.0227C98.7481 67.0227 97.3845 67.4848 96.2784 68.4091C95.1875 69.3333 94.3617 70.5909 93.8011 72.1818C93.2557 73.7727 92.983 75.5833 92.983 77.6136C92.983 79.6439 93.2557 81.4545 93.8011 83.0455C94.3617 84.6364 95.1875 85.8939 96.2784 86.8182C97.3845 87.7273 98.7481 88.1818 100.369 88.1818ZM129.812 95L120.312 60.0909H130.108L135.517 83.5455H135.835L141.472 60.0909H151.085L156.812 83.4091H157.108L162.426 60.0909H172.199L162.722 95H152.472L146.472 73.0455H146.04L140.04 95H129.812ZM189.352 95.5682C186.701 95.5682 184.299 94.8864 182.148 93.5227C180.011 92.1439 178.314 90.1212 177.057 87.4545C175.814 84.7727 175.193 81.4848 175.193 77.5909C175.193 73.5909 175.837 70.2652 177.125 67.6136C178.413 64.947 180.125 62.9545 182.261 61.6364C184.413 60.303 186.769 59.6364 189.33 59.6364C191.284 59.6364 192.913 59.9697 194.216 60.6364C195.534 61.2879 196.595 62.1061 197.398 63.0909C198.216 64.0606 198.837 65.0152 199.261 65.9545H199.557V48.4545H209.216V95H199.67V89.4091H199.261C198.807 90.3788 198.163 91.3409 197.33 92.2955C196.511 93.2348 195.443 94.0152 194.125 94.6364C192.822 95.2576 191.231 95.5682 189.352 95.5682ZM192.42 87.8636C193.981 87.8636 195.299 87.4394 196.375 86.5909C197.466 85.7273 198.299 84.5227 198.875 82.9773C199.466 81.4318 199.761 79.6212 199.761 77.5455C199.761 75.4697 199.473 73.6667 198.898 72.1364C198.322 70.6061 197.489 69.4242 196.398 68.5909C195.307 67.7576 193.981 67.3409 192.42 67.3409C190.83 67.3409 189.489 67.7727 188.398 68.6364C187.307 69.5 186.481 70.697 185.92 72.2273C185.36 73.7576 185.08 75.5303 185.08 77.5455C185.08 79.5758 185.36 81.3712 185.92 82.9318C186.496 84.4773 187.322 85.6894 188.398 86.5682C189.489 87.4318 190.83 87.8636 192.42 87.8636Z" fill="white"/>
<path d="M14.5227 149L1.20455 102.455H11.9545L19.6591 134.795H20.0455L28.5455 102.455H37.75L46.2273 134.864H46.6364L54.3409 102.455H65.0909L51.7727 149H42.1818L33.3182 118.568H32.9545L24.1136 149H14.5227ZM67.9886 149V114.091H77.375V120.182H77.7386C78.375 118.015 79.4432 116.379 80.9432 115.273C82.4432 114.152 84.1705 113.591 86.125 113.591C86.6098 113.591 87.1326 113.621 87.6932 113.682C88.2538 113.742 88.7462 113.826 89.1705 113.932V122.523C88.7159 122.386 88.0871 122.265 87.2841 122.159C86.4811 122.053 85.7462 122 85.0795 122C83.6553 122 82.3826 122.311 81.2614 122.932C80.1553 123.538 79.2765 124.386 78.625 125.477C77.9886 126.568 77.6705 127.826 77.6705 129.25V149H67.9886ZM94.1761 149V114.091H103.858V149H94.1761ZM99.0398 109.591C97.6004 109.591 96.3655 109.114 95.3352 108.159C94.3201 107.189 93.8125 106.03 93.8125 104.682C93.8125 103.348 94.3201 102.205 95.3352 101.25C96.3655 100.28 97.6004 99.7955 99.0398 99.7955C100.479 99.7955 101.706 100.28 102.722 101.25C103.752 102.205 104.267 103.348 104.267 104.682C104.267 106.03 103.752 107.189 102.722 108.159C101.706 109.114 100.479 109.591 99.0398 109.591ZM130.182 114.091V121.364H109.159V114.091H130.182ZM113.932 105.727H123.614V138.273C123.614 139.167 123.75 139.864 124.023 140.364C124.295 140.848 124.674 141.189 125.159 141.386C125.659 141.583 126.235 141.682 126.886 141.682C127.341 141.682 127.795 141.644 128.25 141.568C128.705 141.477 129.053 141.409 129.295 141.364L130.818 148.568C130.333 148.72 129.652 148.894 128.773 149.091C127.894 149.303 126.826 149.432 125.568 149.477C123.235 149.568 121.189 149.258 119.432 148.545C117.689 147.833 116.333 146.727 115.364 145.227C114.394 143.727 113.917 141.833 113.932 139.545V105.727ZM152.023 149.682C148.432 149.682 145.341 148.955 142.75 147.5C140.174 146.03 138.189 143.955 136.795 141.273C135.402 138.576 134.705 135.386 134.705 131.705C134.705 128.114 135.402 124.962 136.795 122.25C138.189 119.538 140.152 117.424 142.682 115.909C145.227 114.394 148.212 113.636 151.636 113.636C153.939 113.636 156.083 114.008 158.068 114.75C160.068 115.477 161.811 116.576 163.295 118.045C164.795 119.515 165.962 121.364 166.795 123.591C167.629 125.803 168.045 128.394 168.045 131.364V134.023H138.568V128.023H158.932C158.932 126.629 158.629 125.394 158.023 124.318C157.417 123.242 156.576 122.402 155.5 121.795C154.439 121.174 153.205 120.864 151.795 120.864C150.326 120.864 149.023 121.205 147.886 121.886C146.765 122.553 145.886 123.455 145.25 124.591C144.614 125.712 144.288 126.962 144.273 128.341V134.045C144.273 135.773 144.591 137.265 145.227 138.523C145.879 139.78 146.795 140.75 147.977 141.432C149.159 142.114 150.561 142.455 152.182 142.455C153.258 142.455 154.242 142.303 155.136 142C156.03 141.697 156.795 141.242 157.432 140.636C158.068 140.03 158.553 139.288 158.886 138.409L167.841 139C167.386 141.152 166.455 143.03 165.045 144.636C163.652 146.227 161.848 147.47 159.636 148.364C157.439 149.242 154.902 149.682 152.023 149.682ZM174.364 149V114.091H183.75V120.182H184.114C184.75 118.015 185.818 116.379 187.318 115.273C188.818 114.152 190.545 113.591 192.5 113.591C192.985 113.591 193.508 113.621 194.068 113.682C194.629 113.742 195.121 113.826 195.545 113.932V122.523C195.091 122.386 194.462 122.265 193.659 122.159C192.856 122.053 192.121 122 191.455 122C190.03 122 188.758 122.311 187.636 122.932C186.53 123.538 185.652 124.386 185 125.477C184.364 126.568 184.045 127.826 184.045 129.25V149H174.364ZM229.597 124.045L220.733 124.591C220.581 123.833 220.256 123.152 219.756 122.545C219.256 121.924 218.597 121.432 217.778 121.068C216.975 120.689 216.013 120.5 214.892 120.5C213.392 120.5 212.127 120.818 211.097 121.455C210.066 122.076 209.551 122.909 209.551 123.955C209.551 124.788 209.884 125.492 210.551 126.068C211.218 126.644 212.362 127.106 213.983 127.455L220.301 128.727C223.695 129.424 226.225 130.545 227.892 132.091C229.559 133.636 230.392 135.667 230.392 138.182C230.392 140.47 229.718 142.477 228.369 144.205C227.036 145.932 225.203 147.28 222.869 148.25C220.551 149.205 217.877 149.682 214.847 149.682C210.225 149.682 206.544 148.72 203.801 146.795C201.074 144.856 199.475 142.22 199.006 138.886L208.528 138.386C208.816 139.795 209.513 140.871 210.619 141.614C211.725 142.341 213.142 142.705 214.869 142.705C216.566 142.705 217.93 142.379 218.96 141.727C220.006 141.061 220.536 140.205 220.551 139.159C220.536 138.28 220.165 137.561 219.438 137C218.71 136.424 217.589 135.985 216.074 135.682L210.028 134.477C206.619 133.795 204.081 132.614 202.415 130.932C200.763 129.25 199.938 127.106 199.938 124.5C199.938 122.258 200.544 120.326 201.756 118.705C202.983 117.083 204.703 115.833 206.915 114.955C209.142 114.076 211.748 113.636 214.733 113.636C219.142 113.636 222.612 114.568 225.142 116.432C227.688 118.295 229.172 120.833 229.597 124.045Z" fill="white"/>
</svg>
