<svg width="114" height="114" viewBox="0 0 114 114" fill="none" xmlns="http://www.w3.org/2000/svg">
<g clip-path="url(#clip0_304_1022)">
<path fill-rule="evenodd" clip-rule="evenodd" d="M7.125 20.1502V90.8516C13.6657 88.3578 22.1374 85.9211 30.5449 85.0803C38.3396 84.2895 46.7756 84.8025 53.4375 88.5858V19.1456C48.7778 14.2365 40.7407 12.8328 31.2645 13.7876C22.4722 14.6711 13.4306 17.514 7.125 20.1502ZM60.5625 19.1456V88.5858C67.2244 84.8096 75.6675 84.2895 83.4551 85.0732C91.8626 85.9282 100.341 88.3578 106.875 90.8516V20.1502C100.569 17.514 91.5278 14.6711 82.7355 13.7876C73.2593 12.8328 65.2223 14.2365 60.5625 19.1456ZM57 12.7046C49.9819 6.66971 39.8074 5.77196 30.5449 6.69821C19.7576 7.78833 8.87063 11.4862 2.08763 14.5713C1.46525 14.8544 0.937474 15.3106 0.5673 15.8854C0.197125 16.4603 0.000189321 17.1295 0 17.8132L0 96.1882C0.000165029 96.7843 0.14989 97.3708 0.435459 97.894C0.721029 98.4172 1.13331 98.8604 1.63455 99.183C2.13579 99.5055 2.70995 99.6972 3.30446 99.7404C3.89896 99.7835 4.49479 99.6769 5.03737 99.4301C11.3216 96.5801 21.4463 93.153 31.2574 92.1626C41.2965 91.1508 49.7111 92.7825 54.2213 98.4112C54.5551 98.8273 54.9781 99.1631 55.459 99.3938C55.9399 99.6246 56.4666 99.7444 57 99.7444C57.5334 99.7444 58.0601 99.6246 58.541 99.3938C59.0219 99.1631 59.4449 98.8273 59.7788 98.4112C64.2889 92.7825 72.7035 91.1508 82.7355 92.1626C92.5538 93.153 102.686 96.5801 108.963 99.4301C109.505 99.6769 110.101 99.7835 110.696 99.7404C111.29 99.6972 111.864 99.5055 112.365 99.183C112.867 98.8604 113.279 98.4172 113.565 97.894C113.85 97.3708 114 96.7843 114 96.1882V17.8132C114 17.1295 113.803 16.4603 113.433 15.8854C113.063 15.3106 112.535 14.8544 111.912 14.5713C105.129 11.4862 94.2424 7.78833 83.4551 6.69821C74.1926 5.76483 64.0181 6.66971 57 12.7046Z" fill="black"/>
</g>
<defs>
<clipPath id="clip0_304_1022">
<rect width="114" height="114" fill="white"/>
</clipPath>
</defs>
</svg>
