<svg width="88" height="88" viewBox="0 0 88 88" fill="none" xmlns="http://www.w3.org/2000/svg">
<g clip-path="url(#clip0_304_1364)">
<path fill-rule="evenodd" clip-rule="evenodd" d="M8.25 5.5C7.52065 5.5 6.82118 5.78973 6.30546 6.30546C5.78973 6.82118 5.5 7.52065 5.5 8.25V24.75C5.5 25.4793 5.21027 26.1788 4.69454 26.6945C4.17882 27.2103 3.47935 27.5 2.75 27.5C2.02065 27.5 1.32118 27.2103 0.805456 26.6945C0.289731 26.1788 0 25.4793 0 24.75V8.25C0 6.06196 0.869194 3.96354 2.41637 2.41637C3.96354 0.869194 6.06196 0 8.25 0L24.75 0C25.4793 0 26.1788 0.289731 26.6945 0.805456C27.2103 1.32118 27.5 2.02065 27.5 2.75C27.5 3.47935 27.2103 4.17882 26.6945 4.69454C26.1788 5.21027 25.4793 5.5 24.75 5.5H8.25ZM60.5 2.75C60.5 2.02065 60.7897 1.32118 61.3055 0.805456C61.8212 0.289731 62.5207 0 63.25 0L79.75 0C81.938 0 84.0365 0.869194 85.5836 2.41637C87.1308 3.96354 88 6.06196 88 8.25V24.75C88 25.4793 87.7103 26.1788 87.1945 26.6945C86.6788 27.2103 85.9793 27.5 85.25 27.5C84.5207 27.5 83.8212 27.2103 83.3055 26.6945C82.7897 26.1788 82.5 25.4793 82.5 24.75V8.25C82.5 7.52065 82.2103 6.82118 81.6945 6.30546C81.1788 5.78973 80.4793 5.5 79.75 5.5H63.25C62.5207 5.5 61.8212 5.21027 61.3055 4.69454C60.7897 4.17882 60.5 3.47935 60.5 2.75ZM2.75 60.5C3.47935 60.5 4.17882 60.7897 4.69454 61.3055C5.21027 61.8212 5.5 62.5207 5.5 63.25V79.75C5.5 80.4793 5.78973 81.1788 6.30546 81.6945C6.82118 82.2103 7.52065 82.5 8.25 82.5H24.75C25.4793 82.5 26.1788 82.7897 26.6945 83.3055C27.2103 83.8212 27.5 84.5207 27.5 85.25C27.5 85.9793 27.2103 86.6788 26.6945 87.1945C26.1788 87.7103 25.4793 88 24.75 88H8.25C6.06196 88 3.96354 87.1308 2.41637 85.5836C0.869194 84.0365 0 81.938 0 79.75L0 63.25C0 62.5207 0.289731 61.8212 0.805456 61.3055C1.32118 60.7897 2.02065 60.5 2.75 60.5ZM85.25 60.5C85.9793 60.5 86.6788 60.7897 87.1945 61.3055C87.7103 61.8212 88 62.5207 88 63.25V79.75C88 81.938 87.1308 84.0365 85.5836 85.5836C84.0365 87.1308 81.938 88 79.75 88H63.25C62.5207 88 61.8212 87.7103 61.3055 87.1945C60.7897 86.6788 60.5 85.9793 60.5 85.25C60.5 84.5207 60.7897 83.8212 61.3055 83.3055C61.8212 82.7897 62.5207 82.5 63.25 82.5H79.75C80.4793 82.5 81.1788 82.2103 81.6945 81.6945C82.2103 81.1788 82.5 80.4793 82.5 79.75V63.25C82.5 62.5207 82.7897 61.8212 83.3055 61.3055C83.8212 60.7897 84.5207 60.5 85.25 60.5Z" fill="black"/>
<path fill-rule="evenodd" clip-rule="evenodd" d="M16.5 77C16.5 77 11 77 11 71.5C11 66 16.5 49.5 44 49.5C71.5 49.5 77 66 77 71.5C77 77 71.5 77 71.5 77H16.5ZM44 44C48.3761 44 52.5729 42.2616 55.6673 39.1673C58.7616 36.0729 60.5 31.8761 60.5 27.5C60.5 23.1239 58.7616 18.9271 55.6673 15.8327C52.5729 12.7384 48.3761 11 44 11C39.6239 11 35.4271 12.7384 32.3327 15.8327C29.2384 18.9271 27.5 23.1239 27.5 27.5C27.5 31.8761 29.2384 36.0729 32.3327 39.1673C35.4271 42.2616 39.6239 44 44 44Z" fill="black"/>
</g>
<defs>
<clipPath id="clip0_304_1364">
<rect width="88" height="88" fill="white"/>
</clipPath>
</defs>
</svg>
