<svg width="48" height="49" viewBox="0 0 48 49" fill="none" xmlns="http://www.w3.org/2000/svg">
<path fill-rule="evenodd" clip-rule="evenodd" d="M30.1811 9.24613C30.2823 9.14428 30.4026 9.06347 30.5349 9.00833C30.6673 8.95319 30.8092 8.9248 30.9525 8.9248C31.0959 8.9248 31.2378 8.95319 31.3702 9.00833C31.5025 9.06347 31.6228 9.14428 31.724 9.24613L40.441 17.9961C40.5425 18.0977 40.623 18.2184 40.6779 18.3513C40.7328 18.4842 40.7611 18.6266 40.7611 18.7705C40.7611 18.9144 40.7328 19.0568 40.6779 19.1897C40.623 19.3226 40.5425 19.4433 40.441 19.5449L36.2961 23.7055L34.4895 30.9527C34.3521 31.5045 34.0741 32.011 33.6829 32.4225C33.2917 32.834 32.8006 33.1364 32.2579 33.2999L9.71362 40.0899L16.478 17.458C16.641 16.9139 16.9421 16.4216 17.3516 16.0293C17.7611 15.637 18.2651 15.3582 18.8142 15.2202L26.034 13.4089L30.1811 9.24613ZM26.2585 15.6074L19.3437 17.3421C19.1602 17.3881 18.9917 17.4812 18.8549 17.6124C18.7181 17.7436 18.6177 17.9082 18.5635 18.0902L12.9629 36.8261L31.6325 31.2043C31.8127 31.1494 31.9756 31.0487 32.1055 30.9118C32.2354 30.775 32.3277 30.6067 32.3734 30.4233L34.1037 23.4802L26.2585 15.6052V15.6074Z" fill="white"/>
<path fill-rule="evenodd" clip-rule="evenodd" d="M13.1529 36.7693L24.4152 27.5205C24.8462 27.5205 25.2676 27.3922 25.6259 27.1518C25.9843 26.9115 26.2636 26.5698 26.4286 26.1701C26.5935 25.7704 26.6367 25.3306 26.5526 24.9062C26.4685 24.4819 26.2609 24.0921 25.9562 23.7862C25.6514 23.4803 25.2631 23.2719 24.8404 23.1875C24.4176 23.1031 23.9795 23.1465 23.5812 23.312C23.183 23.4776 22.8427 23.758 22.6032 24.1177C22.3638 24.4774 22.236 24.9004 22.236 25.333L13.0221 36.638L12.9655 36.8261L13.1529 36.7693Z" fill="white"/>
<path d="M47 24.5C47 21.3512 46.3934 18.3444 45.2917 15.5968L44.3636 15.969C42.1543 10.4588 37.869 6.04388 32.5027 3.74202L32.8969 2.823C30.1592 1.64867 27.1527 1 24 1C20.8473 1 17.8408 1.64866 15.1031 2.823L15.4973 3.74202C10.131 6.04388 5.84572 10.4588 3.63643 15.969L2.70825 15.5968C1.60662 18.3444 1 21.3512 1 24.5C1 27.6488 1.60662 30.6556 2.70825 33.4032L3.63643 33.031C5.84572 38.5412 10.131 42.9561 15.4973 45.258L15.1031 46.177C17.8408 47.3513 20.8473 48 24 48C27.1527 48 30.1592 47.3513 32.8969 46.177L32.5027 45.258C37.869 42.9561 42.1543 38.5412 44.3636 33.031L45.2917 33.4032C46.3934 30.6556 47 27.6488 47 24.5Z" stroke="white" stroke-width="2" stroke-dasharray="20 20"/>
</svg>
